<svg xmlns="http://www.w3.org/2000/svg" viewBox="0 0 504 217.44"><defs><style>.cls-1{fill:#fff;}.cls-1,.cls-2{stroke:#1d1d1b;stroke-miterlimit:10;stroke-width:0.25px;}.cls-2{fill:#00aff0;}.cls-3{fill:none;}</style></defs><g id="Layer_2" data-name="Layer 2"><g id="Layer_1-2" data-name="Layer 1"><path class="cls-1" d="M118.19,95.58c0-7.48,0-15,0-22.44A12.45,12.45,0,0,1,131.59,61a12.27,12.27,0,0,1,11.5,12.46c0,14.2.15,28.4-.06,42.59a16.53,16.53,0,0,0,12.36,16.39,23.06,23.06,0,0,0,14.26-.84c4.29-1.71,6.36-5.42,6.81-9.72.84-8,1.25-16,1.86-24,.28-3.66.51-7.34,1-11,.78-6.57,4-11.76,9.16-15.86a44.42,44.42,0,0,1,13.27-7.52A53.49,53.49,0,0,1,217.24,61a43.88,43.88,0,0,1,25.95,6.62,39.94,39.94,0,0,1,18.08,25,38.59,38.59,0,0,1,1.09,9.27q0,21.41,0,42.83A12.09,12.09,0,0,1,248.51,157a12.35,12.35,0,0,1-10.86-12.33c0-14-.29-28.08.09-42.11C238,92.09,228.55,84,218.1,85.32c-8.11,1-13.19,5.71-15.89,13.25a7.37,7.37,0,0,0-.33,2.24c-.15,5.32-.22,10.64-.47,16a41.8,41.8,0,0,1-10,25.65,39.92,39.92,0,0,1-24.27,14.05,40.77,40.77,0,0,1-31-6.79c-11.89-8.16-17.84-19.61-17.92-34.06C118.16,108.93,118.19,102.25,118.19,95.58Z"/><path class="cls-1" d="M398.86,157.13a56,56,0,0,1-25.39-6.59A60.67,60.67,0,0,1,363.33,144a11.2,11.2,0,0,1-4.08-11.9,11.6,11.6,0,0,1,8.93-9.07c4.34-1.14,8.13.08,11.65,2.78a32.18,32.18,0,0,0,16.8,7,23,23,0,0,0,12.77-2.48,6.9,6.9,0,0,0,2.86-2.65c.77-1.28.64-2-.57-2.87a22.47,22.47,0,0,0-5.19-2.7c-4.53-1.78-9.33-2.49-14-3.52-7-1.53-13.84-3.59-19.82-7.81-7-4.91-11.1-11.4-11.31-20.06a25,25,0,0,1,5.61-16.21C372.43,67.37,380,63.82,388.56,62c12.3-2.66,23.71-.16,34.42,6.15a60.94,60.94,0,0,1,6,3.9,12.15,12.15,0,0,1,3.55,14.86c-2.29,4.83-8.22,7.5-13.63,6.31-2.83-.63-5.07-2.3-7.48-3.69-3.12-1.79-6.27-3.59-9.88-4.16-4.76-.77-9.33-.24-13.41,2.59-2.68,1.86-2.65,2.51.21,4a38.92,38.92,0,0,0,11.06,3.42c8,1.58,15.83,3.54,23.07,7.42,6.89,3.71,12,9,14.22,16.66,2.62,9.07.3,17.07-5.58,24.15-5.54,6.66-13,10.13-21.25,12.18A45.58,45.58,0,0,1,398.86,157.13Z"/><path class="cls-1" d="M34,90.65V37.51c0-7.52,5.09-13.1,12.6-13.17,7.31-.07,13.21,5,13.22,12.73q.07,46.72,0,93.44c0,1.59,0,1.59,1.56,1.59h46.77c4.66,0,8.62,1.57,11.4,5.48,5.36,7.54.93,17-7.22,19.07a16.1,16.1,0,0,1-4,.48H47.53A13.79,13.79,0,0,1,39,154.54a12.1,12.1,0,0,1-5-10.15q0-24.66,0-49.3Z"/><path class="cls-1" d="M319.41,157.17c-14.73-.41-27.84-5.83-38.15-17.25a45.63,45.63,0,0,1-.39-61.14c12.32-13.7,27.81-19.42,46.06-17.31a50.47,50.47,0,0,1,24.91,10.15,11.53,11.53,0,0,1,4.59,11.2c-.61,5-3.67,8-8.28,9.59-4.28,1.45-8.16.48-11.79-2A28.1,28.1,0,0,0,319,85.21c-11.13.38-21.24,8-24.06,18.4a20.82,20.82,0,0,0,4.28,19.47c9.2,11.21,24.58,13.26,36.89,5,2.65-1.78,5.42-3,8.62-2.73,6.41.52,12.21,4.9,11.82,12.36a11.93,11.93,0,0,1-5.45,9.67A57.06,57.06,0,0,1,319.41,157.17Z"/><path class="cls-2" d="M455,127.2a14.76,14.76,0,1,1-14.74,14.71A14.76,14.76,0,0,1,455,127.2Z"/><path class="cls-2" d="M147.91,180a14.75,14.75,0,1,1,14.58,14.86A14.76,14.76,0,0,1,147.91,180Z"/><rect class="cls-3" width="504" height="217.44"/></g></g></svg>