<svg xmlns="http://www.w3.org/2000/svg" xmlns:xlink="http://www.w3.org/1999/xlink" zoomAndPan="magnify" preserveAspectRatio="xMidYMid meet" version="1.0" viewBox="6.78 146.33 365.61 93.67"><defs><g/></defs><g fill="#ffffff" fill-opacity="1"><g transform="translate(0.750004, 219.723398)"><g><path d="M 6.03125 0 L 6.03125 -69.4375 L 33.421875 -69.4375 C 38.691406 -69.4375 43.179688 -68.4375 46.890625 -66.4375 C 50.597656 -64.4375 53.425781 -61.664062 55.375 -58.125 C 57.332031 -54.582031 58.3125 -50.507812 58.3125 -45.90625 C 58.3125 -41.289062 57.316406 -37.222656 55.328125 -33.703125 C 53.335938 -30.191406 50.460938 -27.445312 46.703125 -25.46875 C 42.941406 -23.5 38.390625 -22.515625 33.046875 -22.515625 L 20.71875 -22.515625 L 20.71875 0 Z M 20.71875 -34.28125 L 30.6875 -34.28125 C 34.882812 -34.28125 38.015625 -35.359375 40.078125 -37.515625 C 42.148438 -39.671875 43.1875 -42.46875 43.1875 -45.90625 C 43.1875 -49.363281 42.148438 -52.148438 40.078125 -54.265625 C 38.015625 -56.378906 34.859375 -57.4375 30.609375 -57.4375 L 20.71875 -57.4375 Z M 20.71875 -34.28125 "/></g></g></g><g fill="#ffffff" fill-opacity="1"><g transform="translate(62.587018, 219.723398)"><g><path d="M 20.609375 0.984375 C 15.640625 0.984375 11.515625 -0.3125 8.234375 -2.90625 C 4.960938 -5.507812 3.328125 -9.390625 3.328125 -14.546875 C 3.328125 -18.429688 4.238281 -21.476562 6.0625 -23.6875 C 7.894531 -25.90625 10.296875 -27.53125 13.265625 -28.5625 C 16.242188 -29.59375 19.453125 -30.265625 22.890625 -30.578125 C 27.410156 -31.023438 30.640625 -31.5 32.578125 -32 C 34.523438 -32.5 35.5 -33.585938 35.5 -35.265625 L 35.5 -35.46875 C 35.5 -37.613281 34.828125 -39.269531 33.484375 -40.4375 C 32.140625 -41.613281 30.234375 -42.203125 27.765625 -42.203125 C 25.160156 -42.203125 23.085938 -41.632812 21.546875 -40.5 C 20.015625 -39.375 19.003906 -37.941406 18.515625 -36.203125 L 5.15625 -37.296875 C 6.144531 -42.035156 8.613281 -45.796875 12.5625 -48.578125 C 16.507812 -51.359375 21.597656 -52.75 27.828125 -52.75 C 31.691406 -52.75 35.304688 -52.140625 38.671875 -50.921875 C 42.046875 -49.703125 44.765625 -47.796875 46.828125 -45.203125 C 48.898438 -42.617188 49.9375 -39.257812 49.9375 -35.125 L 49.9375 0 L 36.234375 0 L 36.234375 -7.21875 L 35.828125 -7.21875 C 34.566406 -4.800781 32.675781 -2.828125 30.15625 -1.296875 C 27.632812 0.222656 24.453125 0.984375 20.609375 0.984375 Z M 24.75 -8.984375 C 27.914062 -8.984375 30.515625 -9.90625 32.546875 -11.75 C 34.578125 -13.59375 35.59375 -15.878906 35.59375 -18.609375 L 35.59375 -24.140625 C 35.03125 -23.753906 34.15625 -23.414062 32.96875 -23.125 C 31.78125 -22.832031 30.515625 -22.578125 29.171875 -22.359375 C 27.828125 -22.140625 26.625 -21.953125 25.5625 -21.796875 C 23.03125 -21.429688 20.988281 -20.71875 19.4375 -19.65625 C 17.894531 -18.59375 17.125 -17.046875 17.125 -15.015625 C 17.125 -13.023438 17.835938 -11.519531 19.265625 -10.5 C 20.703125 -9.488281 22.53125 -8.984375 24.75 -8.984375 Z M 24.75 -8.984375 "/></g></g></g><g fill="#ffffff" fill-opacity="1"><g transform="translate(117.982672, 219.723398)"><g><path d="M 14.171875 20.28125 C 12.117188 20.28125 10.363281 20.101562 8.90625 19.75 C 7.445312 19.394531 6.304688 19.039062 5.484375 18.6875 L 8.75 7.5 C 11.300781 8.257812 13.453125 8.457031 15.203125 8.09375 C 16.953125 7.738281 18.335938 6.375 19.359375 4 L 20.3125 1.484375 L 1.625 -52.078125 L 16.8125 -52.078125 L 27.59375 -13.828125 L 28.140625 -13.828125 L 39.015625 -52.078125 L 54.3125 -52.078125 L 33.96875 5.96875 C 32.5 10.125 30.15625 13.546875 26.9375 16.234375 C 23.71875 18.929688 19.460938 20.28125 14.171875 20.28125 Z M 14.171875 20.28125 "/></g></g></g><g fill="#ffffff" fill-opacity="1"><g transform="translate(173.92077, 219.723398)"><g><path d="M 6.03125 0 L 6.03125 -69.4375 L 33.421875 -69.4375 C 38.691406 -69.4375 43.179688 -68.4375 46.890625 -66.4375 C 50.597656 -64.4375 53.425781 -61.664062 55.375 -58.125 C 57.332031 -54.582031 58.3125 -50.507812 58.3125 -45.90625 C 58.3125 -41.289062 57.316406 -37.222656 55.328125 -33.703125 C 53.335938 -30.191406 50.460938 -27.445312 46.703125 -25.46875 C 42.941406 -23.5 38.390625 -22.515625 33.046875 -22.515625 L 20.71875 -22.515625 L 20.71875 0 Z M 20.71875 -34.28125 L 30.6875 -34.28125 C 34.882812 -34.28125 38.015625 -35.359375 40.078125 -37.515625 C 42.148438 -39.671875 43.1875 -42.46875 43.1875 -45.90625 C 43.1875 -49.363281 42.148438 -52.148438 40.078125 -54.265625 C 38.015625 -56.378906 34.859375 -57.4375 30.609375 -57.4375 L 20.71875 -57.4375 Z M 20.71875 -34.28125 "/></g></g></g><g fill="#ffffff" fill-opacity="1"><g transform="translate(235.757783, 219.723398)"><g><path d="M 5.765625 0 L 5.765625 -52.078125 L 20.203125 -52.078125 L 20.203125 0 Z M 13.03125 -58.78125 C 10.90625 -58.78125 9.070312 -59.5 7.53125 -60.9375 C 6 -62.375 5.234375 -64.097656 5.234375 -66.109375 C 5.234375 -68.117188 6 -69.832031 7.53125 -71.25 C 9.070312 -72.675781 10.90625 -73.390625 13.03125 -73.390625 C 15.175781 -73.390625 17.015625 -72.675781 18.546875 -71.25 C 20.085938 -69.832031 20.859375 -68.117188 20.859375 -66.109375 C 20.859375 -64.097656 20.085938 -62.375 18.546875 -60.9375 C 17.015625 -59.5 15.175781 -58.78125 13.03125 -58.78125 Z M 13.03125 -58.78125 "/></g></g></g><g fill="#ffffff" fill-opacity="1"><g transform="translate(261.726622, 219.723398)"><g><path d="M 5.765625 19.53125 L 5.765625 -52.078125 L 20 -52.078125 L 20 -43.328125 L 20.640625 -43.328125 C 21.296875 -44.753906 22.222656 -46.1875 23.421875 -47.625 C 24.617188 -49.070312 26.203125 -50.285156 28.171875 -51.265625 C 30.140625 -52.253906 32.570312 -52.75 35.46875 -52.75 C 39.28125 -52.75 42.78125 -51.757812 45.96875 -49.78125 C 49.15625 -47.800781 51.710938 -44.828125 53.640625 -40.859375 C 55.578125 -36.898438 56.546875 -31.9375 56.546875 -25.96875 C 56.546875 -20.15625 55.609375 -15.253906 53.734375 -11.265625 C 51.859375 -7.273438 49.328125 -4.257812 46.140625 -2.21875 C 42.953125 -0.175781 39.378906 0.84375 35.421875 0.84375 C 32.617188 0.84375 30.238281 0.378906 28.28125 -0.546875 C 26.332031 -1.472656 24.738281 -2.640625 23.5 -4.046875 C 22.269531 -5.460938 21.316406 -6.894531 20.640625 -8.34375 L 20.203125 -8.34375 L 20.203125 19.53125 Z M 19.90625 -26.03125 C 19.90625 -21.40625 20.859375 -17.679688 22.765625 -14.859375 C 24.671875 -12.046875 27.363281 -10.640625 30.84375 -10.640625 C 34.394531 -10.640625 37.109375 -12.066406 38.984375 -14.921875 C 40.859375 -17.785156 41.796875 -21.488281 41.796875 -26.03125 C 41.796875 -30.550781 40.863281 -34.21875 39 -37.03125 C 37.132812 -39.851562 34.414062 -41.265625 30.84375 -41.265625 C 27.34375 -41.265625 24.644531 -39.890625 22.75 -37.140625 C 20.851562 -34.390625 19.90625 -30.6875 19.90625 -26.03125 Z M 19.90625 -26.03125 "/></g></g></g><g fill="#ffffff" fill-opacity="1"><g transform="translate(322.105856, 219.723398)"><g><path d="M 49.09375 -37.21875 L 35.875 -36.40625 C 35.507812 -38.082031 34.59375 -39.519531 33.125 -40.71875 C 31.65625 -41.914062 29.664062 -42.515625 27.15625 -42.515625 C 24.914062 -42.515625 23.019531 -42.046875 21.46875 -41.109375 C 19.925781 -40.171875 19.164062 -38.921875 19.1875 -37.359375 C 19.164062 -36.117188 19.65625 -35.066406 20.65625 -34.203125 C 21.664062 -33.347656 23.378906 -32.660156 25.796875 -32.140625 L 35.21875 -30.234375 C 45.238281 -28.179688 50.257812 -23.484375 50.28125 -16.140625 C 50.28125 -12.722656 49.28125 -9.722656 47.28125 -7.140625 C 45.28125 -4.566406 42.535156 -2.5625 39.046875 -1.125 C 35.566406 0.300781 31.582031 1.015625 27.09375 1.015625 C 20.195312 1.015625 14.703125 -0.421875 10.609375 -3.296875 C 6.515625 -6.179688 4.128906 -10.113281 3.453125 -15.09375 L 17.65625 -15.828125 C 18.113281 -13.703125 19.160156 -12.097656 20.796875 -11.015625 C 22.429688 -9.929688 24.539062 -9.390625 27.125 -9.390625 C 29.65625 -9.390625 31.691406 -9.882812 33.234375 -10.875 C 34.785156 -11.875 35.570312 -13.140625 35.59375 -14.671875 C 35.53125 -17.253906 33.304688 -18.984375 28.921875 -19.859375 L 19.90625 -21.65625 C 9.820312 -23.675781 4.800781 -28.640625 4.84375 -36.546875 C 4.820312 -41.566406 6.828125 -45.519531 10.859375 -48.40625 C 14.898438 -51.300781 20.253906 -52.75 26.921875 -52.75 C 33.492188 -52.75 38.671875 -51.359375 42.453125 -48.578125 C 46.242188 -45.796875 48.457031 -42.007812 49.09375 -37.21875 Z M 49.09375 -37.21875 "/></g></g></g></svg>