<svg xmlns="http://www.w3.org/2000/svg" xmlns:xlink="http://www.w3.org/1999/xlink" zoomAndPan="magnify" preserveAspectRatio="xMidYMid meet" version="1.0" viewBox="0 134.09 374.22 92.68"><defs><g/><clipPath id="59e2322545"><path d="M 0 134.085938 L 75.890625 134.085938 L 75.890625 226.75 L 0 226.75 Z M 0 134.085938 " clip-rule="nonzero"/></clipPath></defs><g clip-path="url(#59e2322545)"><path fill="#ffffff" d="M 12.636719 142.511719 C 10.3125 142.511719 8.425781 144.398438 8.425781 146.722656 L 8.425781 214.125 C 8.425781 216.453125 10.3125 218.339844 12.636719 218.339844 L 63.1875 218.339844 C 65.515625 218.339844 67.402344 216.453125 67.402344 214.125 L 67.402344 167.449219 C 67.402344 166.21875 66.863281 165.050781 65.929688 164.25 L 41.75 143.523438 C 40.988281 142.871094 40.015625 142.511719 39.007812 142.511719 Z M 0 146.722656 C 0 139.742188 5.65625 134.085938 12.636719 134.085938 L 39.007812 134.085938 C 42.027344 134.085938 44.945312 135.164062 47.234375 137.128906 L 71.414062 157.855469 C 74.214844 160.253906 75.828125 163.761719 75.828125 167.449219 L 75.828125 214.125 C 75.828125 221.105469 70.167969 226.761719 63.1875 226.761719 L 12.636719 226.761719 C 5.65625 226.761719 0 221.105469 0 214.125 Z M 0 146.722656 " fill-opacity="1" fill-rule="evenodd"/></g><path fill="#ffffff" d="M 37.914062 155.148438 L 37.914062 140.40625 L 46.339844 140.40625 L 46.339844 155.148438 C 46.339844 157.476562 48.226562 159.363281 50.550781 159.363281 L 69.507812 159.363281 L 69.507812 167.785156 L 50.550781 167.785156 C 43.570312 167.785156 37.914062 162.128906 37.914062 155.148438 Z M 37.914062 155.148438 " fill-opacity="1" fill-rule="evenodd"/><path fill="#ffffff" d="M 21.0625 201.488281 L 54.765625 201.488281 L 54.765625 209.914062 L 21.0625 209.914062 Z M 21.0625 201.488281 " fill-opacity="1" fill-rule="evenodd"/><path fill="#ffffff" d="M 33.699219 172 L 42.125 172 L 42.125 195.167969 L 33.699219 195.167969 Z M 33.699219 172 " fill-opacity="1" fill-rule="evenodd"/><path fill="#ffffff" d="M 34.933594 169.019531 C 36.582031 167.375 39.246094 167.375 40.894531 169.019531 L 53.53125 181.660156 L 47.574219 187.617188 L 37.914062 177.957031 L 28.253906 187.617188 L 22.296875 181.660156 Z M 34.933594 169.019531 " fill-opacity="1" fill-rule="evenodd"/><g fill="#ffffff" fill-opacity="1"><g transform="translate(86.390979, 211.639673)"><g><path d="M 40.859375 -31.859375 C 40.859375 -29.117188 40.269531 -26.609375 39.09375 -24.328125 C 37.914062 -22.054688 36.226562 -20.242188 34.03125 -18.890625 C 31.84375 -17.546875 29.273438 -16.875 26.328125 -16.875 L 14.71875 -16.875 L 14.71875 0 L 4.953125 0 L 4.953125 -46.78125 L 26.328125 -46.78125 C 30.835938 -46.78125 34.382812 -45.429688 36.96875 -42.734375 C 39.5625 -40.046875 40.859375 -36.421875 40.859375 -31.859375 Z M 31.078125 -32.25 C 31.078125 -34.550781 30.414062 -36.203125 29.09375 -37.203125 C 27.769531 -38.203125 25.671875 -38.703125 22.796875 -38.703125 L 14.71875 -38.703125 L 14.71875 -24.953125 L 24.046875 -24.953125 C 28.734375 -24.953125 31.078125 -27.382812 31.078125 -32.25 Z M 31.078125 -32.25 "/></g></g></g><g fill="#ffffff" fill-opacity="1"><g transform="translate(129.842419, 211.639673)"><g><path d="M 24.296875 -35.4375 L 24.296875 -26.1875 C 23.609375 -26.28125 22.785156 -26.328125 21.828125 -26.328125 C 16.140625 -26.328125 13.296875 -23.632812 13.296875 -18.25 L 13.296875 0 L 4.171875 0 L 4.171875 -34.65625 L 12.90625 -34.65625 L 12.90625 -28.671875 L 13.03125 -28.671875 C 14.332031 -31.234375 15.722656 -33.023438 17.203125 -34.046875 C 18.679688 -35.066406 20.460938 -35.578125 22.546875 -35.578125 C 22.765625 -35.578125 23.347656 -35.53125 24.296875 -35.4375 Z M 24.296875 -35.4375 "/></g></g></g><g fill="#ffffff" fill-opacity="1"><g transform="translate(155.183665, 211.639673)"><g><path d="M 4.5 -38.765625 L 4.5 -47.234375 L 13.625 -47.234375 L 13.625 -38.765625 Z M 4.5 0 L 4.5 -34.65625 L 13.625 -34.65625 L 13.625 0 Z M 4.5 0 "/></g></g></g><g fill="#ffffff" fill-opacity="1"><g transform="translate(173.293859, 211.639673)"><g><path d="M 35.578125 -24.234375 L 35.578125 0 L 26.453125 0 L 26.453125 -21.953125 C 26.453125 -23.867188 25.941406 -25.335938 24.921875 -26.359375 C 23.898438 -27.378906 22.4375 -27.890625 20.53125 -27.890625 C 18.394531 -27.890625 16.664062 -27.191406 15.34375 -25.796875 C 14.019531 -24.410156 13.359375 -22.523438 13.359375 -20.140625 L 13.359375 0 L 4.234375 0 L 4.234375 -34.65625 L 12.96875 -34.65625 L 12.96875 -29.578125 L 13.09375 -29.578125 C 14.175781 -31.617188 15.609375 -33.128906 17.390625 -34.109375 C 19.171875 -35.085938 21.210938 -35.578125 23.515625 -35.578125 C 25.910156 -35.578125 28.019531 -35.085938 29.84375 -34.109375 C 31.664062 -33.128906 33.078125 -31.78125 34.078125 -30.0625 C 35.078125 -28.351562 35.578125 -26.410156 35.578125 -24.234375 Z M 35.578125 -24.234375 "/></g></g></g><g fill="#ffffff" fill-opacity="1"><g transform="translate(213.097208, 211.639673)"><g><path d="M 20.140625 -34.65625 L 20.140625 -28.140625 L 14.46875 -28.140625 L 14.46875 -8.796875 C 14.46875 -7.878906 14.71875 -7.269531 15.21875 -6.96875 C 15.71875 -6.664062 16.703125 -6.515625 18.171875 -6.515625 C 18.523438 -6.515625 19.179688 -6.554688 20.140625 -6.640625 L 20.140625 0.265625 C 17.703125 0.347656 16.070312 0.390625 15.25 0.390625 C 12.46875 0.390625 10.359375 0.0976562 8.921875 -0.484375 C 7.492188 -1.078125 6.539062 -1.90625 6.0625 -2.96875 C 5.582031 -4.03125 5.34375 -5.429688 5.34375 -7.171875 L 5.34375 -28.140625 L 0.65625 -28.140625 L 0.65625 -34.65625 L 5.34375 -34.65625 L 5.34375 -44.046875 L 14.46875 -44.046875 L 14.46875 -34.65625 Z M 20.140625 -34.65625 "/></g></g></g><g fill="#20dc49" fill-opacity="1"><g transform="translate(234.797223, 211.639673)"><g><path d="M 18.765625 -6.390625 C 20.109375 -6.390625 21.332031 -6.710938 22.4375 -7.359375 C 23.550781 -8.015625 24.28125 -8.953125 24.625 -10.171875 L 34.015625 -10.171875 C 33.015625 -6.648438 31.164062 -3.921875 28.46875 -1.984375 C 25.78125 -0.0546875 22.546875 0.90625 18.765625 0.90625 C 13.035156 0.90625 8.722656 -0.675781 5.828125 -3.84375 C 2.941406 -7.007812 1.5 -11.722656 1.5 -17.984375 C 1.5 -21.410156 2.140625 -24.445312 3.421875 -27.09375 C 4.703125 -29.75 6.578125 -31.828125 9.046875 -33.328125 C 11.523438 -34.828125 14.523438 -35.578125 18.046875 -35.578125 C 22.992188 -35.578125 26.957031 -33.988281 29.9375 -30.8125 C 32.914062 -27.644531 34.40625 -22.847656 34.40625 -16.421875 L 34.40625 -14.859375 L 10.625 -14.859375 C 10.925781 -9.210938 13.640625 -6.390625 18.765625 -6.390625 Z M 17.921875 -28.078125 C 13.742188 -28.078125 11.394531 -25.644531 10.875 -20.78125 L 25.015625 -20.78125 C 24.796875 -23.039062 24.054688 -24.820312 22.796875 -26.125 C 21.546875 -27.425781 19.921875 -28.078125 17.921875 -28.078125 Z M 17.921875 -28.078125 "/></g></g></g><g fill="#20dc49" fill-opacity="1"><g transform="translate(271.017623, 211.639673)"><g><path d="M 34.34375 -1.375 L 34.34375 0 L 24.5 0 C 23.976562 -1.519531 23.695312 -2.890625 23.65625 -4.109375 C 22 -2.328125 20.28125 -1.046875 18.5 -0.265625 C 16.71875 0.515625 14.695312 0.90625 12.4375 0.90625 C 9.269531 0.90625 6.71875 -0.00390625 4.78125 -1.828125 C 2.851562 -3.648438 1.890625 -6.101562 1.890625 -9.1875 C 1.890625 -12.09375 2.679688 -14.507812 4.265625 -16.4375 C 5.847656 -18.375 8.679688 -19.691406 12.765625 -20.390625 L 19.28125 -21.375 C 20.9375 -21.632812 22.035156 -21.957031 22.578125 -22.34375 C 23.117188 -22.738281 23.390625 -23.390625 23.390625 -24.296875 C 23.390625 -25.609375 22.921875 -26.597656 21.984375 -27.265625 C 21.054688 -27.941406 19.523438 -28.28125 17.390625 -28.28125 C 13.960938 -28.28125 12.097656 -26.671875 11.796875 -23.453125 L 3 -23.453125 C 3.34375 -27.410156 4.675781 -30.421875 7 -32.484375 C 9.320312 -34.546875 13.070312 -35.578125 18.25 -35.578125 C 22.675781 -35.578125 26.125 -34.707031 28.59375 -32.96875 C 31.070312 -31.226562 32.3125 -28.835938 32.3125 -25.796875 L 32.3125 -6.453125 C 32.3125 -4.847656 32.472656 -3.664062 32.796875 -2.90625 C 33.128906 -2.144531 33.644531 -1.632812 34.34375 -1.375 Z M 23.390625 -12.578125 L 23.390625 -16.875 C 22.609375 -16.394531 21.757812 -16.015625 20.84375 -15.734375 C 19.9375 -15.453125 18.613281 -15.179688 16.875 -14.921875 C 14.914062 -14.660156 13.445312 -14.128906 12.46875 -13.328125 C 11.5 -12.523438 11.015625 -11.335938 11.015625 -9.765625 C 11.015625 -8.515625 11.40625 -7.507812 12.1875 -6.75 C 12.96875 -5.988281 13.988281 -5.609375 15.25 -5.609375 C 16.59375 -5.609375 17.894531 -5.898438 19.15625 -6.484375 C 20.414062 -7.066406 21.4375 -7.890625 22.21875 -8.953125 C 23 -10.023438 23.390625 -11.234375 23.390625 -12.578125 Z M 23.390625 -12.578125 "/></g></g></g><g fill="#20dc49" fill-opacity="1"><g transform="translate(307.238022, 211.639673)"><g><path d="M 13.09375 -7.5 L 31.28125 -7.5 L 31.28125 0 L 1.296875 0 L 1.296875 -7.109375 L 19.09375 -27.359375 L 2.546875 -27.359375 L 2.546875 -34.65625 L 30.625 -34.65625 L 30.625 -27.171875 Z M 13.09375 -7.5 "/></g></g></g><g fill="#20dc49" fill-opacity="1"><g transform="translate(339.81032, 211.639673)"><g><path d="M 18.765625 -6.390625 C 20.109375 -6.390625 21.332031 -6.710938 22.4375 -7.359375 C 23.550781 -8.015625 24.28125 -8.953125 24.625 -10.171875 L 34.015625 -10.171875 C 33.015625 -6.648438 31.164062 -3.921875 28.46875 -1.984375 C 25.78125 -0.0546875 22.546875 0.90625 18.765625 0.90625 C 13.035156 0.90625 8.722656 -0.675781 5.828125 -3.84375 C 2.941406 -7.007812 1.5 -11.722656 1.5 -17.984375 C 1.5 -21.410156 2.140625 -24.445312 3.421875 -27.09375 C 4.703125 -29.75 6.578125 -31.828125 9.046875 -33.328125 C 11.523438 -34.828125 14.523438 -35.578125 18.046875 -35.578125 C 22.992188 -35.578125 26.957031 -33.988281 29.9375 -30.8125 C 32.914062 -27.644531 34.40625 -22.847656 34.40625 -16.421875 L 34.40625 -14.859375 L 10.625 -14.859375 C 10.925781 -9.210938 13.640625 -6.390625 18.765625 -6.390625 Z M 17.921875 -28.078125 C 13.742188 -28.078125 11.394531 -25.644531 10.875 -20.78125 L 25.015625 -20.78125 C 24.796875 -23.039062 24.054688 -24.820312 22.796875 -26.125 C 21.546875 -27.425781 19.921875 -28.078125 17.921875 -28.078125 Z M 17.921875 -28.078125 "/></g></g></g></svg>