<svg xmlns="http://www.w3.org/2000/svg" xmlns:xlink="http://www.w3.org/1999/xlink" zoomAndPan="magnify" preserveAspectRatio="xMidYMid meet" version="1.0" viewBox="17.24 139.55 340.93 105.19"><defs><g/></defs><g fill="#ffffff" fill-opacity="1"><g transform="translate(12.56518, 236.842093)"><g><path d="M 95.015625 -47.578125 C 95.015625 -78.3125 74.96875 -97.296875 49.578125 -97.296875 C 24.1875 -97.296875 4.671875 -78.3125 4.671875 -47.578125 C 4.671875 -16.703125 24.1875 3.078125 49.578125 3.078125 C 58.40625 3.078125 66.546875 0.671875 73.5 -3.734375 L 84.1875 7.890625 L 95.015625 -3.875 L 83.921875 -13.234375 C 90.875 -21.78125 95.015625 -33.546875 95.015625 -47.578125 Z M 24.453125 -47.578125 C 24.453125 -66.953125 33.9375 -80.1875 49.578125 -80.1875 C 65.21875 -80.1875 75.234375 -67.09375 75.234375 -47.578125 C 75.234375 -39.15625 73.5 -31.8125 70.15625 -26.1875 L 61.078125 -36.34375 L 50.25 -24.59375 L 60 -16.4375 C 56.9375 -14.828125 53.453125 -14.03125 49.578125 -14.03125 C 33.9375 -14.03125 24.453125 -27.53125 24.453125 -47.578125 Z M 24.453125 -47.578125 "/></g></g></g><g fill="#ffffff" fill-opacity="1"><g transform="translate(111.726336, 236.842093)"><g><path d="M 65.625 -58.40625 L 28.46875 -58.40625 L 28.46875 -95.15625 L 8.6875 -95.15625 L 8.6875 0 L 28.46875 0 L 28.46875 -40.765625 L 65.625 -40.765625 L 65.625 0 L 85.390625 0 L 85.390625 -95.15625 L 65.625 -95.15625 Z M 65.625 -58.40625 "/></g></g></g><g fill="#ffffff" fill-opacity="1"><g transform="translate(205.80916, 236.842093)"><g><path d="M 50.375 -32.078125 C 50.375 -21.78125 44.90625 -15.234375 36.890625 -15.234375 C 30.203125 -15.234375 26.859375 -19.78125 26.859375 -27 L 26.859375 -68.953125 L 8.015625 -68.953125 L 8.015625 -22.71875 C 8.015625 -7.75 16.296875 1.734375 30.609375 1.734375 C 39.421875 1.734375 45.96875 -1.875 50.515625 -9.359375 L 50.78125 0 L 69.21875 0 L 69.21875 -68.953125 L 50.375 -68.953125 Z M 50.375 -32.078125 "/></g></g></g><g fill="#ffffff" fill-opacity="1"><g transform="translate(283.053313, 236.842093)"><g><path d="M 46.90625 -70.703125 C 38.09375 -70.703125 31.546875 -67.75 26.859375 -62.015625 L 26.859375 -95.15625 L 8.015625 -95.15625 L 8.015625 0 L 24.71875 0 L 25.390625 -8.546875 C 30.0625 -1.34375 36.890625 2.265625 45.4375 2.265625 C 62.8125 2.265625 75.109375 -12.5625 75.109375 -34.75 C 75.109375 -57.328125 62.546875 -70.703125 46.90625 -70.703125 Z M 41.421875 -14.296875 C 32.34375 -14.296875 25.921875 -22.3125 25.921875 -34.75 C 25.921875 -47.171875 32.34375 -55.0625 41.421875 -55.0625 C 50.515625 -55.0625 56.9375 -47.3125 56.9375 -34.75 C 56.9375 -22.046875 50.515625 -14.296875 41.421875 -14.296875 Z M 41.421875 -14.296875 "/></g></g></g></svg>