<svg width="177" height="55" viewBox="0 0 177 55" fill="none" xmlns="http://www.w3.org/2000/svg">
<path d="M9.9189 0.394685C5.78277 0.939455 2.07485 3.73898 0.900142 7.85376C-0.0259143 11.0976 0.426303 14.7913 0.426303 18.1374V36.5952C0.426303 41.0264 -0.428295 46.2342 2.25033 50.0813C4.10442 52.7432 6.77883 54.5824 10.0507 54.8988C12.2526 55.1124 14.5622 54.9212 16.7747 54.9212H29.9588H40.1106C41.8748 54.9212 43.7689 55.115 45.5162 54.8645C49.2773 54.3253 53.1991 51.55 54.3444 47.8018C55.4024 44.3383 55.0088 40.5716 55.0088 36.9908V18.5329C55.0088 14.1063 55.8723 8.77072 53.1234 4.95324C51.5387 2.75254 48.9754 1.05323 46.3072 0.519534C44.5143 0.160925 42.5889 0.338783 40.7699 0.338783H20.3344H13.6105C12.3946 0.338783 11.1255 0.235816 9.9189 0.394685Z" fill="#FBBC05"/>
<path d="M35.7597 44.6373C35.5527 43.9478 34.8727 43.4613 34.3787 42.9563C33.4713 42.0308 32.581 41.0842 31.6746 40.1547C31.2444 39.7144 30.8262 38.9958 30.2218 38.7862C29.764 38.6267 29.2291 38.8389 28.7721 38.9101C28.2164 38.9972 27.6178 38.9985 27.0582 38.9457C23.9661 38.6517 20.948 37.0802 19.0178 34.6174C16.5584 31.4795 15.375 27.4715 16.4344 23.5427C18.287 16.6711 26.1093 12.1126 32.7049 15.76C36.2089 17.6981 38.8635 21.2117 39.2965 25.2566C39.4481 26.6713 39.3333 28.2283 38.988 29.6074C38.8175 30.2877 38.1296 31.2791 38.2572 31.9805C38.3691 32.5962 39.1641 33.1381 39.578 33.5613C40.5158 34.5172 41.4041 35.5152 42.3518 36.4631C42.8451 36.9562 43.2968 37.4849 43.9339 37.7816C44.5332 36.6424 45.3131 35.5416 45.8026 34.3537C47.6071 29.9726 47.8514 25.0298 46.4104 20.5103C44.2457 13.7215 37.9095 8.37955 30.8816 7.23714C25.8229 6.41485 20.4899 7.73563 16.2849 10.6C9.65837 15.114 6.49364 24.1584 8.70344 31.8487C10.0694 36.6029 13.2512 40.8522 17.4389 43.4745C22.0119 46.3381 27.4271 46.6769 32.5955 45.6789C33.6936 45.4679 34.6822 44.8707 35.7597 44.6373Z" fill="white"/>
<path d="M102.999 14.05V41.4731H108.8V30.5303H119.611V41.4731H125.412V14.05H119.611V24.9929H108.8V14.05H102.999Z" fill="white"/>
<path fill-rule="evenodd" clip-rule="evenodd" d="M96.694 38.3105C97.2809 38.8206 97.8715 39.3337 98.5164 39.7596C98.0902 40.6893 97.2915 41.5332 96.5361 42.3314C96.2608 42.6222 95.9914 42.9069 95.7477 43.1875C95.7048 43.237 95.6599 43.2924 95.6129 43.3503C95.3431 43.6834 95.0048 44.1012 94.5612 43.9575C94.2569 43.8584 93.9747 43.5981 93.7209 43.3638C93.6469 43.2956 93.5754 43.2296 93.5064 43.1704L91.6606 41.5883C91.5963 41.533 91.5306 41.4727 91.4631 41.4108C91.1073 41.0845 90.7036 40.7143 90.2104 40.8052C89.6672 40.9058 89.1362 41.1192 88.6041 41.333C88.1327 41.5224 87.6605 41.7122 87.178 41.8243C84.789 42.3807 82.4357 42.3108 80.0586 41.7373C77.8898 41.2152 75.7841 40.0312 74.1257 38.5507C72.6016 37.19 71.4415 35.5473 70.5964 33.6949C69.8224 31.9981 69.3794 30.1537 69.3794 28.2894C69.3794 24.5979 70.3505 21.2992 72.7366 18.4013C77.1831 12.9997 85.3599 11.8105 91.2651 15.3953C92.805 16.3314 94.254 17.5984 95.314 19.0605C97.9178 22.6558 98.9831 27.2584 97.7544 31.5855C97.4076 32.805 96.9343 34.0641 96.2672 35.1452C96.1938 35.2641 96.0846 35.4045 95.9661 35.557C95.6481 35.966 95.2629 36.4615 95.3206 36.8591C95.3709 37.2104 95.7164 37.4895 95.9996 37.7182C96.0501 37.7591 96.0987 37.7983 96.1433 37.8361C96.3275 37.9921 96.5106 38.1512 96.694 38.3105ZM83.9574 34.9202C84.5819 35.4133 85.2434 35.9355 85.5958 36.596C85.4042 36.611 85.2131 36.6285 85.0222 36.646C84.2925 36.713 83.566 36.7796 82.8271 36.7054C80.6729 36.4905 78.6965 35.2011 77.3333 33.5636C73.2987 28.7211 75.6229 20.7354 81.7724 19.0505C87.5655 17.4631 93.0356 23.1244 92.2235 28.8173C92.0178 30.2583 91.6342 32.0488 90.474 33.0362C89.863 32.5029 89.2403 31.9825 88.6174 31.4621C87.6851 30.683 86.7526 29.9038 85.8595 29.081C85.3743 29.8574 84.7529 30.5578 84.1372 31.252C83.883 31.5385 83.6298 31.824 83.3875 32.1134C83.326 32.1868 83.2445 32.2704 83.1559 32.3614C82.8529 32.6723 82.4667 33.0686 82.5147 33.4318C82.5603 33.7777 82.9221 34.0738 83.2067 34.3068C83.2594 34.35 83.3096 34.391 83.3545 34.4298C83.5426 34.5927 83.7479 34.7548 83.9574 34.9202Z" fill="white"/>
<path d="M129.763 21.5652V30.7941C129.763 33.0024 129.629 35.1647 130.482 37.2543C131.849 40.5978 135.792 42.9486 139.388 42.1008C141.07 41.7053 142.408 40.6928 143.606 39.4957V41.4733H149.408V21.5652H143.606V29.8712C143.606 31.3399 143.824 32.9734 143.227 34.3538C141.894 37.4323 137.887 37.6406 136.218 34.7494C135.467 33.4481 135.696 31.8409 135.696 30.3986V21.5652H129.763Z" fill="white"/>
<path fill-rule="evenodd" clip-rule="evenodd" d="M153.89 41.4731V14.05H159.691V23.0153C161.375 21.8103 163.244 20.828 165.36 20.7753C167.23 20.7305 169.138 21.1616 170.766 22.0924C172.33 22.985 173.624 24.1346 174.608 25.6521C177.01 29.3608 176.819 34.3629 174.204 37.9134C170.828 42.4962 164.089 43.6406 159.691 39.891V41.4731H153.89ZM160.921 35.1399C158.383 32.2315 159.691 27.0936 163.646 26.2485C166.104 25.7225 168.651 26.8273 169.794 29.0805C171.259 31.9704 169.709 35.9837 166.415 36.7115C164.434 37.1492 162.299 36.7194 160.921 35.1399Z" fill="white"/>
<path d="M32.5958 28.4211C31.647 29.7646 30.1128 30.9749 28.9043 32.1008C28.5003 32.4766 27.6469 32.9618 27.5754 33.563C27.5193 34.0376 28.1267 34.5241 28.3769 34.8814C28.9998 34.706 29.3685 34.2683 29.8271 33.8293C30.0659 33.5999 30.3778 33.2255 30.75 33.269C31.1994 33.3217 31.6104 33.8939 31.8964 34.1998C32.1399 34.4608 32.3163 34.6915 32.464 35.0132C31.8876 35.2822 31.4648 35.7344 31.0215 36.1879C30.8199 36.3936 30.5022 36.6533 30.5855 36.9803C30.6956 37.4128 31.2825 37.8135 31.5411 38.1774C32.2803 37.8333 32.8151 37.1662 33.3869 36.5953C34.1141 35.8689 34.9009 35.2123 35.6282 34.4859C36.0415 34.0732 36.702 33.6025 36.9254 33.0475C37.0943 32.6282 36.5948 32.1259 36.2631 31.9294C35.2216 31.3124 34.6922 33.2914 33.7824 33.2914C33.3431 33.2914 32.8664 32.6757 32.6061 32.3764C31.8584 31.5181 32.9074 30.8919 33.5109 30.2893C33.6974 30.1034 33.9622 29.8925 33.9247 29.5959C33.8809 29.2504 33.5129 28.9287 33.2577 28.727C33.0401 28.5556 32.8553 28.4937 32.5958 28.4211Z" fill="white"/>
<path d="M37.8694 33.9666C37.1843 34.0562 36.4846 35.0846 36.0237 35.5407C35.1502 36.403 34.0996 37.0622 33.7541 38.3094C33.0173 40.9687 35.4428 42.7143 37.8694 42.1566C39.0552 41.8837 39.9002 40.589 40.7582 39.7992C41.1607 39.4288 41.7321 39.0556 42.0012 38.5718C42.2918 38.0471 41.6533 37.0754 41.0541 37.0754C40.6313 37.0754 40.2458 37.6476 39.9784 37.9139C39.208 38.6786 38.3616 39.5975 37.4739 40.2198C37.1034 40.4782 36.5899 40.6404 36.1628 40.4149C35.5279 40.0801 35.3373 39.1611 35.7076 38.5731C36.4706 37.3615 37.8812 36.6509 38.7703 35.5407C39.2479 34.9448 38.6819 33.8598 37.8694 33.9666Z" fill="white"/>
<path fill-rule="evenodd" clip-rule="evenodd" d="M39.0405 45.8303C38.4874 45.3117 37.9164 44.7763 37.6055 44.1101C38.4853 43.4401 39.2765 42.6435 40.0658 41.8488C40.5579 41.3535 41.0492 40.8588 41.5607 40.3961C41.6549 40.3109 41.762 40.1932 41.8788 40.065C42.2406 39.6675 42.6947 39.1686 43.1428 39.2214C43.551 39.2694 43.9445 39.714 44.2527 40.0623C44.3256 40.1447 44.3937 40.2216 44.4561 40.2867C44.5396 40.3739 44.6278 40.4628 44.7178 40.5534C45.1133 40.9518 45.5437 41.3854 45.7653 41.8741C46.3574 43.1793 45.7972 45.0448 44.1976 45.1648C44.0564 46.8919 42.5008 48.093 40.7748 47.3863C40.388 47.2277 40.0992 46.912 39.8176 46.6041C39.7389 46.5181 39.6607 46.4326 39.5811 46.3514C39.41 46.1767 39.2263 46.0045 39.0405 45.8303ZM42.2201 42.5281V42.1326C42.2706 42.101 42.3233 42.0649 42.3779 42.0276C42.6085 41.8699 42.8727 41.6892 43.1432 41.7265C44.3441 41.89 44.369 43.9744 43.1432 43.2401C42.9556 43.1271 42.7838 42.9828 42.6124 42.8388C42.4837 42.7306 42.3551 42.6226 42.2201 42.5281ZM40.5817 44.9013C40.3949 44.6468 40.314 44.4108 40.2425 44.1102C40.2889 44.0816 40.3377 44.0485 40.3885 44.0141C40.5832 43.8822 40.8063 43.7311 41.0289 43.7384C41.5266 43.7556 42.1824 44.5796 42.2698 45.0331C42.3771 45.5895 41.9096 45.8703 41.4286 45.6857C41.307 45.6399 41.2005 45.5479 41.1004 45.4615C41.0796 45.4436 41.0591 45.4259 41.0388 45.4088C40.8669 45.2651 40.7135 45.0819 40.5817 44.9013Z" fill="white"/>
</svg>
