<svg version="1.0" preserveAspectRatio="xMidYMid meet" viewBox="0 361.5839968752 814.86 100.439999132" zoomAndPan="magnify" xmlns:xlink="http://www.w3.org/1999/xlink" xmlns="http://www.w3.org/2000/svg" style="max-height: 500px" width="814.86" height="100.439999132"><defs><g/></defs><g fill-opacity="1" fill="#ffffff"><g transform="translate(0.0749851, 433.499998)"><g><path d="M 26.859375 0.59375 C 22.492188 0.59375 18.582031 -0.113281 15.125 -1.53125 C 11.664062 -2.945312 8.898438 -5.039062 6.828125 -7.8125 C 4.765625 -10.59375 3.675781 -13.9375 3.5625 -17.84375 L 19.046875 -17.84375 C 19.265625 -15.632812 20.023438 -13.945312 21.328125 -12.78125 C 22.640625 -11.625 24.34375 -11.046875 26.4375 -11.046875 C 28.59375 -11.046875 30.289062 -11.539062 31.53125 -12.53125 C 32.78125 -13.53125 33.40625 -14.90625 33.40625 -16.65625 C 33.40625 -18.132812 32.910156 -19.351562 31.921875 -20.3125 C 30.929688 -21.28125 29.710938 -22.070312 28.265625 -22.6875 C 26.816406 -23.3125 24.757812 -24.019531 22.09375 -24.8125 C 18.238281 -26.007812 15.09375 -27.203125 12.65625 -28.390625 C 10.226562 -29.578125 8.132812 -31.332031 6.375 -33.65625 C 4.613281 -35.976562 3.734375 -39.007812 3.734375 -42.75 C 3.734375 -48.300781 5.742188 -52.648438 9.765625 -55.796875 C 13.796875 -58.941406 19.039062 -60.515625 25.5 -60.515625 C 32.070312 -60.515625 37.367188 -58.941406 41.390625 -55.796875 C 45.421875 -52.648438 47.578125 -48.273438 47.859375 -42.671875 L 32.125 -42.671875 C 32.007812 -44.597656 31.300781 -46.113281 30 -47.21875 C 28.695312 -48.320312 27.023438 -48.875 24.984375 -48.875 C 23.234375 -48.875 21.816406 -48.40625 20.734375 -47.46875 C 19.660156 -46.53125 19.125 -45.1875 19.125 -43.4375 C 19.125 -41.507812 20.03125 -40.003906 21.84375 -38.921875 C 23.65625 -37.847656 26.488281 -36.6875 30.34375 -35.4375 C 34.195312 -34.132812 37.328125 -32.890625 39.734375 -31.703125 C 42.140625 -30.515625 44.222656 -28.785156 45.984375 -26.515625 C 47.742188 -24.253906 48.625 -21.335938 48.625 -17.765625 C 48.625 -14.367188 47.757812 -11.28125 46.03125 -8.5 C 44.300781 -5.71875 41.789062 -3.503906 38.5 -1.859375 C 35.21875 -0.222656 31.335938 0.59375 26.859375 0.59375 Z M 26.859375 0.59375"/></g></g></g><g fill-opacity="1" fill="#ffffff"><g transform="translate(52.347623, 433.499998)"><g><path d="M 19.8125 -40.71875 C 21.226562 -42.925781 23.179688 -44.707031 25.671875 -46.0625 C 28.160156 -47.425781 31.078125 -48.109375 34.421875 -48.109375 C 38.335938 -48.109375 41.878906 -47.113281 45.046875 -45.125 C 48.222656 -43.144531 50.726562 -40.3125 52.5625 -36.625 C 54.40625 -32.945312 55.328125 -28.671875 55.328125 -23.796875 C 55.328125 -18.921875 54.40625 -14.628906 52.5625 -10.921875 C 50.726562 -7.210938 48.222656 -4.347656 45.046875 -2.328125 C 41.878906 -0.316406 38.335938 0.6875 34.421875 0.6875 C 31.140625 0.6875 28.238281 0.00390625 25.71875 -1.359375 C 23.195312 -2.722656 21.226562 -4.476562 19.8125 -6.625 L 19.8125 22.609375 L 5.265625 22.609375 L 5.265625 -47.4375 L 19.8125 -47.4375 Z M 40.546875 -23.796875 C 40.546875 -27.421875 39.539062 -30.265625 37.53125 -32.328125 C 35.519531 -34.398438 33.039062 -35.4375 30.09375 -35.4375 C 27.195312 -35.4375 24.742188 -34.390625 22.734375 -32.296875 C 20.722656 -30.203125 19.71875 -27.34375 19.71875 -23.71875 C 19.71875 -20.09375 20.722656 -17.226562 22.734375 -15.125 C 24.742188 -13.03125 27.195312 -11.984375 30.09375 -11.984375 C 32.976562 -11.984375 35.441406 -13.046875 37.484375 -15.171875 C 39.523438 -17.296875 40.546875 -20.171875 40.546875 -23.796875 Z M 40.546875 -23.796875"/></g></g></g><g fill-opacity="1" fill="#ffffff"><g transform="translate(110.060015, 433.499998)"><g><path d="M 2.375 -23.796875 C 2.375 -28.671875 3.296875 -32.945312 5.140625 -36.625 C 6.984375 -40.3125 9.488281 -43.144531 12.65625 -45.125 C 15.832031 -47.113281 19.378906 -48.109375 23.296875 -48.109375 C 26.640625 -48.109375 29.570312 -47.425781 32.09375 -46.0625 C 34.613281 -44.707031 36.550781 -42.925781 37.90625 -40.71875 L 37.90625 -47.4375 L 52.4375 -47.4375 L 52.4375 0 L 37.90625 0 L 37.90625 -6.71875 C 36.488281 -4.507812 34.519531 -2.722656 32 -1.359375 C 29.476562 0.00390625 26.546875 0.6875 23.203125 0.6875 C 19.347656 0.6875 15.832031 -0.316406 12.65625 -2.328125 C 9.488281 -4.347656 6.984375 -7.210938 5.140625 -10.921875 C 3.296875 -14.628906 2.375 -18.921875 2.375 -23.796875 Z M 37.90625 -23.71875 C 37.90625 -27.34375 36.898438 -30.203125 34.890625 -32.296875 C 32.878906 -34.390625 30.429688 -35.4375 27.546875 -35.4375 C 24.648438 -35.4375 22.195312 -34.398438 20.1875 -32.328125 C 18.175781 -30.265625 17.171875 -27.421875 17.171875 -23.796875 C 17.171875 -20.171875 18.175781 -17.296875 20.1875 -15.171875 C 22.195312 -13.046875 24.648438 -11.984375 27.546875 -11.984375 C 30.429688 -11.984375 32.878906 -13.03125 34.890625 -15.125 C 36.898438 -17.226562 37.90625 -20.09375 37.90625 -23.71875 Z M 37.90625 -23.71875"/></g></g></g><g fill-opacity="1" fill="#ffffff"><g transform="translate(167.772407, 433.499998)"><g><path d="M 19.8125 -39.53125 C 21.507812 -42.132812 23.628906 -44.1875 26.171875 -45.6875 C 28.722656 -47.1875 31.5625 -47.9375 34.6875 -47.9375 L 34.6875 -32.5625 L 30.6875 -32.5625 C 27.0625 -32.5625 24.34375 -31.78125 22.53125 -30.21875 C 20.71875 -28.65625 19.8125 -25.921875 19.8125 -22.015625 L 19.8125 0 L 5.265625 0 L 5.265625 -47.4375 L 19.8125 -47.4375 Z M 19.8125 -39.53125"/></g></g></g><g fill-opacity="1" fill="#ffffff"><g transform="translate(204.150759, 433.499998)"><g><path d="M 34.25 0 L 19.8125 -19.890625 L 19.8125 0 L 5.265625 0 L 5.265625 -62.90625 L 19.8125 -62.90625 L 19.8125 -28.140625 L 34.171875 -47.4375 L 52.109375 -47.4375 L 32.390625 -23.625 L 52.28125 0 Z M 34.25 0"/></g></g></g><g fill-opacity="1" fill="#ffffff"><g transform="translate(256.678382, 433.499998)"><g><path d="M 24.5625 0.6875 C 20.425781 0.6875 16.742188 -0.0195312 13.515625 -1.4375 C 10.285156 -2.851562 7.734375 -4.796875 5.859375 -7.265625 C 3.992188 -9.734375 2.945312 -12.5 2.71875 -15.5625 L 17.078125 -15.5625 C 17.253906 -13.914062 18.019531 -12.582031 19.375 -11.5625 C 20.738281 -10.539062 22.410156 -10.03125 24.390625 -10.03125 C 26.203125 -10.03125 27.601562 -10.382812 28.59375 -11.09375 C 29.59375 -11.800781 30.09375 -12.722656 30.09375 -13.859375 C 30.09375 -15.210938 29.382812 -16.210938 27.96875 -16.859375 C 26.550781 -17.515625 24.253906 -18.242188 21.078125 -19.046875 C 17.679688 -19.835938 14.847656 -20.671875 12.578125 -21.546875 C 10.316406 -22.421875 8.363281 -23.804688 6.71875 -25.703125 C 5.070312 -27.609375 4.25 -30.175781 4.25 -33.40625 C 4.25 -36.125 5 -38.601562 6.5 -40.84375 C 8 -43.082031 10.207031 -44.851562 13.125 -46.15625 C 16.050781 -47.457031 19.523438 -48.109375 23.546875 -48.109375 C 29.492188 -48.109375 34.179688 -46.632812 37.609375 -43.6875 C 41.035156 -40.738281 43.003906 -36.828125 43.515625 -31.953125 L 30.09375 -31.953125 C 29.863281 -33.597656 29.140625 -34.898438 27.921875 -35.859375 C 26.703125 -36.828125 25.101562 -37.3125 23.125 -37.3125 C 21.414062 -37.3125 20.109375 -36.984375 19.203125 -36.328125 C 18.296875 -35.679688 17.84375 -34.789062 17.84375 -33.65625 C 17.84375 -32.300781 18.566406 -31.28125 20.015625 -30.59375 C 21.460938 -29.914062 23.71875 -29.238281 26.78125 -28.5625 C 30.289062 -27.65625 33.148438 -26.757812 35.359375 -25.875 C 37.566406 -25 39.503906 -23.582031 41.171875 -21.625 C 42.847656 -19.675781 43.71875 -17.054688 43.78125 -13.765625 C 43.78125 -10.992188 43 -8.515625 41.4375 -6.328125 C 39.875 -4.148438 37.632812 -2.4375 34.71875 -1.1875 C 31.800781 0.0625 28.414062 0.6875 24.5625 0.6875 Z M 24.5625 0.6875"/></g></g></g><g fill-opacity="1" fill="#ffffff"><g transform="translate(304.106244, 433.499998)"><g><path d="M 12.578125 -52.359375 C 10.023438 -52.359375 7.941406 -53.109375 6.328125 -54.609375 C 4.710938 -56.109375 3.90625 -57.96875 3.90625 -60.1875 C 3.90625 -62.445312 4.710938 -64.328125 6.328125 -65.828125 C 7.941406 -67.328125 10.023438 -68.078125 12.578125 -68.078125 C 15.066406 -68.078125 17.117188 -67.328125 18.734375 -65.828125 C 20.359375 -64.328125 21.171875 -62.445312 21.171875 -60.1875 C 21.171875 -57.96875 20.359375 -56.109375 18.734375 -54.609375 C 17.117188 -53.109375 15.066406 -52.359375 12.578125 -52.359375 Z M 19.8125 -47.4375 L 19.8125 0 L 5.265625 0 L 5.265625 -47.4375 Z M 19.8125 -47.4375"/></g></g></g><g fill-opacity="1" fill="#ffffff"><g transform="translate(329.180111, 433.499998)"><g><path d="M 31.703125 -12.328125 L 31.703125 0 L 24.3125 0 C 19.039062 0 14.929688 -1.285156 11.984375 -3.859375 C 9.035156 -6.441406 7.5625 -10.648438 7.5625 -16.484375 L 7.5625 -35.359375 L 1.78125 -35.359375 L 1.78125 -47.4375 L 7.5625 -47.4375 L 7.5625 -58.984375 L 22.09375 -58.984375 L 22.09375 -47.4375 L 31.625 -47.4375 L 31.625 -35.359375 L 22.09375 -35.359375 L 22.09375 -16.3125 C 22.09375 -14.894531 22.429688 -13.875 23.109375 -13.25 C 23.796875 -12.632812 24.929688 -12.328125 26.515625 -12.328125 Z M 31.703125 -12.328125"/></g></g></g><g fill-opacity="1" fill="#ffffff"><g transform="translate(363.688555, 433.499998)"><g><path d="M 49.984375 -24.484375 C 49.984375 -23.117188 49.894531 -21.703125 49.71875 -20.234375 L 16.828125 -20.234375 C 17.054688 -17.285156 18.003906 -15.03125 19.671875 -13.46875 C 21.347656 -11.914062 23.40625 -11.140625 25.84375 -11.140625 C 29.46875 -11.140625 31.988281 -12.664062 33.40625 -15.71875 L 48.875 -15.71875 C 48.082031 -12.601562 46.648438 -9.796875 44.578125 -7.296875 C 42.515625 -4.804688 39.921875 -2.851562 36.796875 -1.4375 C 33.679688 -0.0195312 30.195312 0.6875 26.34375 0.6875 C 21.695312 0.6875 17.5625 -0.300781 13.9375 -2.28125 C 10.3125 -4.269531 7.476562 -7.101562 5.4375 -10.78125 C 3.394531 -14.46875 2.375 -18.78125 2.375 -23.71875 C 2.375 -28.644531 3.378906 -32.945312 5.390625 -36.625 C 7.410156 -40.3125 10.234375 -43.144531 13.859375 -45.125 C 17.484375 -47.113281 21.644531 -48.109375 26.34375 -48.109375 C 30.9375 -48.109375 35.015625 -47.144531 38.578125 -45.21875 C 42.148438 -43.289062 44.941406 -40.539062 46.953125 -36.96875 C 48.972656 -33.40625 49.984375 -29.242188 49.984375 -24.484375 Z M 35.109375 -28.3125 C 35.109375 -30.800781 34.253906 -32.78125 32.546875 -34.25 C 30.847656 -35.726562 28.726562 -36.46875 26.1875 -36.46875 C 23.75 -36.46875 21.691406 -35.757812 20.015625 -34.34375 C 18.347656 -32.925781 17.316406 -30.914062 16.921875 -28.3125 Z M 35.109375 -28.3125"/></g></g></g><g fill-opacity="1" fill="#ffffff"><g transform="translate(416.046188, 433.499998)"><g><path d="M 24.5625 0.6875 C 20.425781 0.6875 16.742188 -0.0195312 13.515625 -1.4375 C 10.285156 -2.851562 7.734375 -4.796875 5.859375 -7.265625 C 3.992188 -9.734375 2.945312 -12.5 2.71875 -15.5625 L 17.078125 -15.5625 C 17.253906 -13.914062 18.019531 -12.582031 19.375 -11.5625 C 20.738281 -10.539062 22.410156 -10.03125 24.390625 -10.03125 C 26.203125 -10.03125 27.601562 -10.382812 28.59375 -11.09375 C 29.59375 -11.800781 30.09375 -12.722656 30.09375 -13.859375 C 30.09375 -15.210938 29.382812 -16.210938 27.96875 -16.859375 C 26.550781 -17.515625 24.253906 -18.242188 21.078125 -19.046875 C 17.679688 -19.835938 14.847656 -20.671875 12.578125 -21.546875 C 10.316406 -22.421875 8.363281 -23.804688 6.71875 -25.703125 C 5.070312 -27.609375 4.25 -30.175781 4.25 -33.40625 C 4.25 -36.125 5 -38.601562 6.5 -40.84375 C 8 -43.082031 10.207031 -44.851562 13.125 -46.15625 C 16.050781 -47.457031 19.523438 -48.109375 23.546875 -48.109375 C 29.492188 -48.109375 34.179688 -46.632812 37.609375 -43.6875 C 41.035156 -40.738281 43.003906 -36.828125 43.515625 -31.953125 L 30.09375 -31.953125 C 29.863281 -33.597656 29.140625 -34.898438 27.921875 -35.859375 C 26.703125 -36.828125 25.101562 -37.3125 23.125 -37.3125 C 21.414062 -37.3125 20.109375 -36.984375 19.203125 -36.328125 C 18.296875 -35.679688 17.84375 -34.789062 17.84375 -33.65625 C 17.84375 -32.300781 18.566406 -31.28125 20.015625 -30.59375 C 21.460938 -29.914062 23.71875 -29.238281 26.78125 -28.5625 C 30.289062 -27.65625 33.148438 -26.757812 35.359375 -25.875 C 37.566406 -25 39.503906 -23.582031 41.171875 -21.625 C 42.847656 -19.675781 43.71875 -17.054688 43.78125 -13.765625 C 43.78125 -10.992188 43 -8.515625 41.4375 -6.328125 C 39.875 -4.148438 37.632812 -2.4375 34.71875 -1.1875 C 31.800781 0.0625 28.414062 0.6875 24.5625 0.6875 Z M 24.5625 0.6875"/></g></g></g><g fill-opacity="1" fill="#ffffff"><g transform="translate(463.474073, 433.499998)"><g/></g></g><g fill-opacity="1" fill="#ffffff"><g transform="translate(481.493252, 433.499998)"><g><path d="M 26.859375 0.59375 C 22.492188 0.59375 18.582031 -0.113281 15.125 -1.53125 C 11.664062 -2.945312 8.898438 -5.039062 6.828125 -7.8125 C 4.765625 -10.59375 3.675781 -13.9375 3.5625 -17.84375 L 19.046875 -17.84375 C 19.265625 -15.632812 20.023438 -13.945312 21.328125 -12.78125 C 22.640625 -11.625 24.34375 -11.046875 26.4375 -11.046875 C 28.59375 -11.046875 30.289062 -11.539062 31.53125 -12.53125 C 32.78125 -13.53125 33.40625 -14.90625 33.40625 -16.65625 C 33.40625 -18.132812 32.910156 -19.351562 31.921875 -20.3125 C 30.929688 -21.28125 29.710938 -22.070312 28.265625 -22.6875 C 26.816406 -23.3125 24.757812 -24.019531 22.09375 -24.8125 C 18.238281 -26.007812 15.09375 -27.203125 12.65625 -28.390625 C 10.226562 -29.578125 8.132812 -31.332031 6.375 -33.65625 C 4.613281 -35.976562 3.734375 -39.007812 3.734375 -42.75 C 3.734375 -48.300781 5.742188 -52.648438 9.765625 -55.796875 C 13.796875 -58.941406 19.039062 -60.515625 25.5 -60.515625 C 32.070312 -60.515625 37.367188 -58.941406 41.390625 -55.796875 C 45.421875 -52.648438 47.578125 -48.273438 47.859375 -42.671875 L 32.125 -42.671875 C 32.007812 -44.597656 31.300781 -46.113281 30 -47.21875 C 28.695312 -48.320312 27.023438 -48.875 24.984375 -48.875 C 23.234375 -48.875 21.816406 -48.40625 20.734375 -47.46875 C 19.660156 -46.53125 19.125 -45.1875 19.125 -43.4375 C 19.125 -41.507812 20.03125 -40.003906 21.84375 -38.921875 C 23.65625 -37.847656 26.488281 -36.6875 30.34375 -35.4375 C 34.195312 -34.132812 37.328125 -32.890625 39.734375 -31.703125 C 42.140625 -30.515625 44.222656 -28.785156 45.984375 -26.515625 C 47.742188 -24.253906 48.625 -21.335938 48.625 -17.765625 C 48.625 -14.367188 47.757812 -11.28125 46.03125 -8.5 C 44.300781 -5.71875 41.789062 -3.503906 38.5 -1.859375 C 35.21875 -0.222656 31.335938 0.59375 26.859375 0.59375 Z M 26.859375 0.59375"/></g></g></g><g fill-opacity="1" fill="#ffffff"><g transform="translate(533.765878, 433.499998)"><g><path d="M 31.703125 -12.328125 L 31.703125 0 L 24.3125 0 C 19.039062 0 14.929688 -1.285156 11.984375 -3.859375 C 9.035156 -6.441406 7.5625 -10.648438 7.5625 -16.484375 L 7.5625 -35.359375 L 1.78125 -35.359375 L 1.78125 -47.4375 L 7.5625 -47.4375 L 7.5625 -58.984375 L 22.09375 -58.984375 L 22.09375 -47.4375 L 31.625 -47.4375 L 31.625 -35.359375 L 22.09375 -35.359375 L 22.09375 -16.3125 C 22.09375 -14.894531 22.429688 -13.875 23.109375 -13.25 C 23.796875 -12.632812 24.929688 -12.328125 26.515625 -12.328125 Z M 31.703125 -12.328125"/></g></g></g><g fill-opacity="1" fill="#ffffff"><g transform="translate(568.274299, 433.499998)"><g><path d="M 52.109375 -47.4375 L 52.109375 0 L 37.5625 0 L 37.5625 -6.453125 C 36.09375 -4.359375 34.097656 -2.671875 31.578125 -1.390625 C 29.054688 -0.117188 26.265625 0.515625 23.203125 0.515625 C 19.578125 0.515625 16.375 -0.289062 13.59375 -1.90625 C 10.820312 -3.519531 8.671875 -5.859375 7.140625 -8.921875 C 5.609375 -11.984375 4.84375 -15.582031 4.84375 -19.71875 L 4.84375 -47.4375 L 19.296875 -47.4375 L 19.296875 -21.671875 C 19.296875 -18.503906 20.113281 -16.039062 21.75 -14.28125 C 23.394531 -12.519531 25.609375 -11.640625 28.390625 -11.640625 C 31.222656 -11.640625 33.457031 -12.519531 35.09375 -14.28125 C 36.738281 -16.039062 37.5625 -18.503906 37.5625 -21.671875 L 37.5625 -47.4375 Z M 52.109375 -47.4375"/></g></g></g><g fill-opacity="1" fill="#ffffff"><g transform="translate(625.561726, 433.499998)"><g><path d="M 2.375 -23.796875 C 2.375 -28.671875 3.296875 -32.945312 5.140625 -36.625 C 6.984375 -40.3125 9.488281 -43.144531 12.65625 -45.125 C 15.832031 -47.113281 19.378906 -48.109375 23.296875 -48.109375 C 26.410156 -48.109375 29.253906 -47.457031 31.828125 -46.15625 C 34.410156 -44.851562 36.4375 -43.097656 37.90625 -40.890625 L 37.90625 -62.90625 L 52.4375 -62.90625 L 52.4375 0 L 37.90625 0 L 37.90625 -6.796875 C 36.550781 -4.535156 34.613281 -2.722656 32.09375 -1.359375 C 29.570312 0.00390625 26.640625 0.6875 23.296875 0.6875 C 19.378906 0.6875 15.832031 -0.316406 12.65625 -2.328125 C 9.488281 -4.347656 6.984375 -7.210938 5.140625 -10.921875 C 3.296875 -14.628906 2.375 -18.921875 2.375 -23.796875 Z M 37.90625 -23.71875 C 37.90625 -27.34375 36.898438 -30.203125 34.890625 -32.296875 C 32.878906 -34.390625 30.429688 -35.4375 27.546875 -35.4375 C 24.648438 -35.4375 22.195312 -34.398438 20.1875 -32.328125 C 18.175781 -30.265625 17.171875 -27.421875 17.171875 -23.796875 C 17.171875 -20.171875 18.175781 -17.296875 20.1875 -15.171875 C 22.195312 -13.046875 24.648438 -11.984375 27.546875 -11.984375 C 30.429688 -11.984375 32.878906 -13.03125 34.890625 -15.125 C 36.898438 -17.226562 37.90625 -20.09375 37.90625 -23.71875 Z M 37.90625 -23.71875"/></g></g></g><g fill-opacity="1" fill="#ffffff"><g transform="translate(683.274141, 433.499998)"><g><path d="M 12.578125 -52.359375 C 10.023438 -52.359375 7.941406 -53.109375 6.328125 -54.609375 C 4.710938 -56.109375 3.90625 -57.96875 3.90625 -60.1875 C 3.90625 -62.445312 4.710938 -64.328125 6.328125 -65.828125 C 7.941406 -67.328125 10.023438 -68.078125 12.578125 -68.078125 C 15.066406 -68.078125 17.117188 -67.328125 18.734375 -65.828125 C 20.359375 -64.328125 21.171875 -62.445312 21.171875 -60.1875 C 21.171875 -57.96875 20.359375 -56.109375 18.734375 -54.609375 C 17.117188 -53.109375 15.066406 -52.359375 12.578125 -52.359375 Z M 19.8125 -47.4375 L 19.8125 0 L 5.265625 0 L 5.265625 -47.4375 Z M 19.8125 -47.4375"/></g></g></g><g fill-opacity="1" fill="#ffffff"><g transform="translate(708.348007, 433.499998)"><g><path d="M 26.859375 0.6875 C 22.210938 0.6875 18.03125 -0.300781 14.3125 -2.28125 C 10.601562 -4.269531 7.6875 -7.101562 5.5625 -10.78125 C 3.4375 -14.46875 2.375 -18.78125 2.375 -23.71875 C 2.375 -28.59375 3.453125 -32.882812 5.609375 -36.59375 C 7.765625 -40.300781 10.710938 -43.144531 14.453125 -45.125 C 18.191406 -47.113281 22.382812 -48.109375 27.03125 -48.109375 C 31.675781 -48.109375 35.867188 -47.113281 39.609375 -45.125 C 43.347656 -43.144531 46.296875 -40.300781 48.453125 -36.59375 C 50.609375 -32.882812 51.6875 -28.59375 51.6875 -23.71875 C 51.6875 -18.84375 50.59375 -14.546875 48.40625 -10.828125 C 46.226562 -7.117188 43.253906 -4.269531 39.484375 -2.28125 C 35.710938 -0.300781 31.503906 0.6875 26.859375 0.6875 Z M 26.859375 -11.90625 C 29.640625 -11.90625 32.003906 -12.921875 33.953125 -14.953125 C 35.910156 -16.992188 36.890625 -19.914062 36.890625 -23.71875 C 36.890625 -27.507812 35.9375 -30.425781 34.03125 -32.46875 C 32.132812 -34.507812 29.800781 -35.53125 27.03125 -35.53125 C 24.195312 -35.53125 21.84375 -34.523438 19.96875 -32.515625 C 18.101562 -30.503906 17.171875 -27.570312 17.171875 -23.71875 C 17.171875 -19.914062 18.085938 -16.992188 19.921875 -14.953125 C 21.765625 -12.921875 24.078125 -11.90625 26.859375 -11.90625 Z M 26.859375 -11.90625"/></g></g></g><g fill-opacity="1" fill="#ffffff"><g transform="translate(762.490552, 433.499998)"><g><path d="M 24.5625 0.6875 C 20.425781 0.6875 16.742188 -0.0195312 13.515625 -1.4375 C 10.285156 -2.851562 7.734375 -4.796875 5.859375 -7.265625 C 3.992188 -9.734375 2.945312 -12.5 2.71875 -15.5625 L 17.078125 -15.5625 C 17.253906 -13.914062 18.019531 -12.582031 19.375 -11.5625 C 20.738281 -10.539062 22.410156 -10.03125 24.390625 -10.03125 C 26.203125 -10.03125 27.601562 -10.382812 28.59375 -11.09375 C 29.59375 -11.800781 30.09375 -12.722656 30.09375 -13.859375 C 30.09375 -15.210938 29.382812 -16.210938 27.96875 -16.859375 C 26.550781 -17.515625 24.253906 -18.242188 21.078125 -19.046875 C 17.679688 -19.835938 14.847656 -20.671875 12.578125 -21.546875 C 10.316406 -22.421875 8.363281 -23.804688 6.71875 -25.703125 C 5.070312 -27.609375 4.25 -30.175781 4.25 -33.40625 C 4.25 -36.125 5 -38.601562 6.5 -40.84375 C 8 -43.082031 10.207031 -44.851562 13.125 -46.15625 C 16.050781 -47.457031 19.523438 -48.109375 23.546875 -48.109375 C 29.492188 -48.109375 34.179688 -46.632812 37.609375 -43.6875 C 41.035156 -40.738281 43.003906 -36.828125 43.515625 -31.953125 L 30.09375 -31.953125 C 29.863281 -33.597656 29.140625 -34.898438 27.921875 -35.859375 C 26.703125 -36.828125 25.101562 -37.3125 23.125 -37.3125 C 21.414062 -37.3125 20.109375 -36.984375 19.203125 -36.328125 C 18.296875 -35.679688 17.84375 -34.789062 17.84375 -33.65625 C 17.84375 -32.300781 18.566406 -31.28125 20.015625 -30.59375 C 21.460938 -29.914062 23.71875 -29.238281 26.78125 -28.5625 C 30.289062 -27.65625 33.148438 -26.757812 35.359375 -25.875 C 37.566406 -25 39.503906 -23.582031 41.171875 -21.625 C 42.847656 -19.675781 43.71875 -17.054688 43.78125 -13.765625 C 43.78125 -10.992188 43 -8.515625 41.4375 -6.328125 C 39.875 -4.148438 37.632812 -2.4375 34.71875 -1.1875 C 31.800781 0.0625 28.414062 0.6875 24.5625 0.6875 Z M 24.5625 0.6875"/></g></g></g></svg>