<svg version="1.0" preserveAspectRatio="xMidYMid meet" viewBox="0 156.59999624160002 379.5 74.99999820000001" zoomAndPan="magnify" xmlns:xlink="http://www.w3.org/1999/xlink" xmlns="http://www.w3.org/2000/svg" style="max-height: 500px" width="379.5" height="74.99999820000001"><defs><g/><clipPath id="773308c2cd"><path clip-rule="nonzero" d="M 0 217 L 373 217 L 373 217.304688 L 0 217.304688 Z M 70.316406 217.304688 L 373 217.304688 L 373 226 L 70.316406 226 Z M 0 217.304688 L 45.167969 217.304688 L 45.167969 226 L 0 226 Z M 0 217.304688"/></clipPath></defs><g clip-path="url(#773308c2cd)"><path fill-rule="nonzero" fill-opacity="1" d="M -1.441406 217.898438 L 372.96875 217.898438 L 372.96875 225.054688 L -1.441406 225.054688 Z M -1.441406 217.898438" fill="#ffffff"/></g><g fill-opacity="1" fill="#ffffff"><g transform="translate(-1.442362, 213.131405)"><g><path d="M 22.796875 0.53125 C 19.273438 0.53125 16.125 -0.09375 13.34375 -1.34375 C 10.570312 -2.59375 8.394531 -4.328125 6.8125 -6.546875 C 5.226562 -8.765625 4.410156 -11.328125 4.359375 -14.234375 L 11.78125 -14.234375 C 12.039062 -11.734375 13.070312 -9.628906 14.875 -7.921875 C 16.6875 -6.210938 19.328125 -5.359375 22.796875 -5.359375 C 26.117188 -5.359375 28.734375 -6.1875 30.640625 -7.84375 C 32.554688 -9.5 33.515625 -11.628906 33.515625 -14.234375 C 33.515625 -16.273438 32.953125 -17.929688 31.828125 -19.203125 C 30.703125 -20.484375 29.296875 -21.453125 27.609375 -22.109375 C 25.929688 -22.773438 23.664062 -23.488281 20.8125 -24.25 C 17.289062 -25.164062 14.472656 -26.082031 12.359375 -27 C 10.242188 -27.925781 8.429688 -29.367188 6.921875 -31.328125 C 5.421875 -33.296875 4.671875 -35.9375 4.671875 -39.25 C 4.671875 -42.15625 5.410156 -44.726562 6.890625 -46.96875 C 8.367188 -49.21875 10.445312 -50.953125 13.125 -52.171875 C 15.800781 -53.398438 18.875 -54.015625 22.34375 -54.015625 C 27.34375 -54.015625 31.4375 -52.765625 34.625 -50.265625 C 37.8125 -47.765625 39.609375 -44.453125 40.015625 -40.328125 L 32.359375 -40.328125 C 32.109375 -42.367188 31.039062 -44.164062 29.15625 -45.71875 C 27.269531 -47.269531 24.769531 -48.046875 21.65625 -48.046875 C 18.75 -48.046875 16.375 -47.289062 14.53125 -45.78125 C 12.695312 -44.28125 11.78125 -42.179688 11.78125 -39.484375 C 11.78125 -37.546875 12.328125 -35.960938 13.421875 -34.734375 C 14.523438 -33.515625 15.878906 -32.582031 17.484375 -31.9375 C 19.085938 -31.300781 21.34375 -30.578125 24.25 -29.765625 C 27.769531 -28.796875 30.601562 -27.835938 32.75 -26.890625 C 34.894531 -25.953125 36.726562 -24.5 38.25 -22.53125 C 39.78125 -20.570312 40.546875 -17.90625 40.546875 -14.53125 C 40.546875 -11.9375 39.859375 -9.488281 38.484375 -7.1875 C 37.109375 -4.894531 35.066406 -3.035156 32.359375 -1.609375 C 29.660156 -0.179688 26.472656 0.53125 22.796875 0.53125 Z M 22.796875 0.53125"/></g></g></g><g fill-opacity="1" fill="#ffffff"><g transform="translate(40.021338, 213.131405)"><g><path d="M 42 -41.9375 L 16.75 19.734375 L 9.5625 19.734375 L 17.828125 -0.453125 L 0.921875 -41.9375 L 8.640625 -41.9375 L 21.8125 -7.953125 L 34.8125 -41.9375 Z M 42 -41.9375"/></g></g></g><g fill-opacity="1" fill="#ffffff"><g transform="translate(79.648975, 213.131405)"><g><path d="M 26.328125 -42.703125 C 31.421875 -42.703125 35.546875 -41.15625 38.703125 -38.0625 C 41.867188 -34.976562 43.453125 -30.53125 43.453125 -24.71875 L 43.453125 0 L 36.578125 0 L 36.578125 -23.71875 C 36.578125 -27.90625 35.53125 -31.109375 33.4375 -33.328125 C 31.34375 -35.546875 28.488281 -36.65625 24.875 -36.65625 C 21.195312 -36.65625 18.273438 -35.503906 16.109375 -33.203125 C 13.941406 -30.910156 12.859375 -27.570312 12.859375 -23.1875 L 12.859375 0 L 5.890625 0 L 5.890625 -41.9375 L 12.859375 -41.9375 L 12.859375 -35.96875 C 14.234375 -38.101562 16.101562 -39.757812 18.46875 -40.9375 C 20.84375 -42.113281 23.460938 -42.703125 26.328125 -42.703125 Z M 26.328125 -42.703125"/></g></g></g><g fill-opacity="1" fill="#ffffff"><g transform="translate(125.167338, 213.131405)"><g><path d="M 3.296875 -21.046875 C 3.296875 -25.378906 4.160156 -29.164062 5.890625 -32.40625 C 7.628906 -35.644531 10.039062 -38.15625 13.125 -39.9375 C 16.207031 -41.726562 19.738281 -42.625 23.71875 -42.625 C 28.875 -42.625 33.117188 -41.375 36.453125 -38.875 C 39.796875 -36.375 42.003906 -32.90625 43.078125 -28.46875 L 35.578125 -28.46875 C 34.867188 -31.019531 33.476562 -33.035156 31.40625 -34.515625 C 29.34375 -35.992188 26.78125 -36.734375 23.71875 -36.734375 C 19.738281 -36.734375 16.523438 -35.367188 14.078125 -32.640625 C 11.628906 -29.910156 10.40625 -26.046875 10.40625 -21.046875 C 10.40625 -15.992188 11.628906 -12.085938 14.078125 -9.328125 C 16.523438 -6.578125 19.738281 -5.203125 23.71875 -5.203125 C 26.78125 -5.203125 29.332031 -5.914062 31.375 -7.34375 C 33.414062 -8.769531 34.816406 -10.8125 35.578125 -13.46875 L 43.078125 -13.46875 C 41.953125 -9.1875 39.707031 -5.753906 36.34375 -3.171875 C 32.976562 -0.597656 28.769531 0.6875 23.71875 0.6875 C 19.738281 0.6875 16.207031 -0.203125 13.125 -1.984375 C 10.039062 -3.773438 7.628906 -6.300781 5.890625 -9.5625 C 4.160156 -12.832031 3.296875 -16.660156 3.296875 -21.046875 Z M 3.296875 -21.046875"/></g></g></g><g fill-opacity="1" fill="#ffffff"><g transform="translate(168.161093, 213.131405)"><g><path d="M 46.296875 -37.875 C 44.816406 -40.988281 42.671875 -43.398438 39.859375 -45.109375 C 37.054688 -46.816406 33.796875 -47.671875 30.078125 -47.671875 C 26.347656 -47.671875 22.988281 -46.816406 20 -45.109375 C 17.019531 -43.398438 14.675781 -40.953125 12.96875 -37.765625 C 11.257812 -34.578125 10.40625 -30.890625 10.40625 -26.703125 C 10.40625 -22.515625 11.257812 -18.835938 12.96875 -15.671875 C 14.675781 -12.515625 17.019531 -10.082031 20 -8.375 C 22.988281 -6.664062 26.347656 -5.8125 30.078125 -5.8125 C 35.273438 -5.8125 39.554688 -7.367188 42.921875 -10.484375 C 46.285156 -13.597656 48.25 -17.804688 48.8125 -23.109375 L 27.546875 -23.109375 L 27.546875 -28.765625 L 56.234375 -28.765625 L 56.234375 -23.40625 C 55.828125 -19.019531 54.453125 -15.003906 52.109375 -11.359375 C 49.765625 -7.710938 46.675781 -4.832031 42.84375 -2.71875 C 39.019531 -0.601562 34.765625 0.453125 30.078125 0.453125 C 25.128906 0.453125 20.613281 -0.703125 16.53125 -3.015625 C 12.445312 -5.335938 9.21875 -8.566406 6.84375 -12.703125 C 4.476562 -16.835938 3.296875 -21.503906 3.296875 -26.703125 C 3.296875 -31.910156 4.476562 -36.59375 6.84375 -40.75 C 9.21875 -44.90625 12.445312 -48.140625 16.53125 -50.453125 C 20.613281 -52.773438 25.128906 -53.9375 30.078125 -53.9375 C 35.734375 -53.9375 40.738281 -52.535156 45.09375 -49.734375 C 49.457031 -46.929688 52.632812 -42.976562 54.625 -37.875 Z M 46.296875 -37.875"/></g></g></g><g fill-opacity="1" fill="#ffffff"><g transform="translate(224.236877, 213.131405)"><g><path d="M 12.859375 -35.125 C 14.078125 -37.519531 15.820312 -39.378906 18.09375 -40.703125 C 20.363281 -42.035156 23.128906 -42.703125 26.390625 -42.703125 L 26.390625 -35.5 L 24.5625 -35.5 C 16.757812 -35.5 12.859375 -31.265625 12.859375 -22.796875 L 12.859375 0 L 5.890625 0 L 5.890625 -41.9375 L 12.859375 -41.9375 Z M 12.859375 -35.125"/></g></g></g><g fill-opacity="1" fill="#ffffff"><g transform="translate(249.328942, 213.131405)"><g><path d="M 3.296875 -21.125 C 3.296875 -25.40625 4.160156 -29.164062 5.890625 -32.40625 C 7.628906 -35.644531 10.015625 -38.15625 13.046875 -39.9375 C 16.078125 -41.726562 19.457031 -42.625 23.1875 -42.625 C 26.851562 -42.625 30.035156 -41.832031 32.734375 -40.25 C 35.441406 -38.664062 37.460938 -36.675781 38.796875 -34.28125 L 38.796875 -41.9375 L 45.828125 -41.9375 L 45.828125 0 L 38.796875 0 L 38.796875 -7.796875 C 37.421875 -5.347656 35.367188 -3.320312 32.640625 -1.71875 C 29.910156 -0.113281 26.734375 0.6875 23.109375 0.6875 C 19.378906 0.6875 16.007812 -0.226562 13 -2.0625 C 10 -3.90625 7.628906 -6.484375 5.890625 -9.796875 C 4.160156 -13.109375 3.296875 -16.882812 3.296875 -21.125 Z M 38.796875 -21.046875 C 38.796875 -24.203125 38.15625 -26.953125 36.875 -29.296875 C 35.601562 -31.648438 33.882812 -33.453125 31.71875 -34.703125 C 29.550781 -35.953125 27.164062 -36.578125 24.5625 -36.578125 C 21.957031 -36.578125 19.582031 -35.960938 17.4375 -34.734375 C 15.300781 -33.515625 13.59375 -31.726562 12.3125 -29.375 C 11.039062 -27.03125 10.40625 -24.28125 10.40625 -21.125 C 10.40625 -17.90625 11.039062 -15.109375 12.3125 -12.734375 C 13.59375 -10.367188 15.300781 -8.5625 17.4375 -7.3125 C 19.582031 -6.0625 21.957031 -5.4375 24.5625 -5.4375 C 27.164062 -5.4375 29.550781 -6.0625 31.71875 -7.3125 C 33.882812 -8.5625 35.601562 -10.367188 36.875 -12.734375 C 38.15625 -15.109375 38.796875 -17.878906 38.796875 -21.046875 Z M 38.796875 -21.046875"/></g></g></g><g fill-opacity="1" fill="#ffffff"><g transform="translate(297.601409, 213.131405)"><g><path d="M 56.3125 -42.703125 C 59.582031 -42.703125 62.488281 -42.023438 65.03125 -40.671875 C 67.582031 -39.316406 69.597656 -37.285156 71.078125 -34.578125 C 72.554688 -31.878906 73.296875 -28.59375 73.296875 -24.71875 L 73.296875 0 L 66.421875 0 L 66.421875 -23.71875 C 66.421875 -27.90625 65.382812 -31.109375 63.3125 -33.328125 C 61.25 -35.546875 58.457031 -36.65625 54.9375 -36.65625 C 51.3125 -36.65625 48.425781 -35.492188 46.28125 -33.171875 C 44.144531 -30.847656 43.078125 -27.492188 43.078125 -23.109375 L 43.078125 0 L 36.1875 0 L 36.1875 -23.71875 C 36.1875 -27.90625 35.15625 -31.109375 33.09375 -33.328125 C 31.03125 -35.546875 28.238281 -36.65625 24.71875 -36.65625 C 21.09375 -36.65625 18.207031 -35.492188 16.0625 -33.171875 C 13.925781 -30.847656 12.859375 -27.492188 12.859375 -23.109375 L 12.859375 0 L 5.890625 0 L 5.890625 -41.9375 L 12.859375 -41.9375 L 12.859375 -35.890625 C 14.234375 -38.078125 16.082031 -39.757812 18.40625 -40.9375 C 20.726562 -42.113281 23.289062 -42.703125 26.09375 -42.703125 C 29.613281 -42.703125 32.722656 -41.910156 35.421875 -40.328125 C 38.128906 -38.742188 40.144531 -36.421875 41.46875 -33.359375 C 42.644531 -36.316406 44.582031 -38.613281 47.28125 -40.25 C 49.988281 -41.882812 53 -42.703125 56.3125 -42.703125 Z M 56.3125 -42.703125"/></g></g></g></svg>